<?xml version="1.0" standalone="no"?><!DOCTYPE svg PUBLIC "-//W3C//DTD SVG 1.1//EN" "http://www.w3.org/Graphics/SVG/1.1/DTD/svg11.dtd"><svg t="1638864824448" class="icon" viewBox="0 0 1027 1024" version="1.1" xmlns="http://www.w3.org/2000/svg" p-id="11374" xmlns:xlink="http://www.w3.org/1999/xlink" width="200.5859375" height="200"><defs><style type="text/css"></style></defs><path d="M0 0h1024v1024H0z" fill="#FFFFFF" p-id="11375"></path><path d="M462.126777 760.073355c-61.23588 0-129.275748-1.088638-206.092757-3.674152-4.830831 0-113.830698-8.164784-163.295681-61.84824a27.215947 27.215947 0 0 1-7.280266-19.663521c0.884518-20.888239 5.30711-33.407575 13.607974-37.353887 0-0.884518 0-1.905116 0.408239-2.993754A71.64598 71.64598 0 0 1 170.099668 574.732757h64.161594a36.945648 36.945648 0 0 0 6.123588 0 184.592159 184.592159 0 0 0 29.937542-11.634817 636.785116 636.785116 0 0 1 67.019269-26.195349c1.700997-0.544319 3.606113-1.292757 5.647309-2.109236s5.783389-2.245316 8.777143-3.197873 6.803987-1.769037 10.682259-2.925715l9.729701-2.585515c14.220332-4.354551 126.758272-105.257674 144.244518-141.046644 0.612359-1.088638 31.774618-51.574219 36.741529-60.623522 0.544319-1.088638 1.360797-3.401993 2.245315-5.851428 4.626711-13.607973 15.58113-44.906312 55.112293-32.250897 9.797741 3.129834 19.595482 6.803987 30.890099 11.498737 34.428173 13.607973 81.647841 32.455017 174.45422 45.926911a19.595482 19.595482 0 0 1 15.581129 4.422591c8.028704 6.803987 11.090498 20.41196 9.185382 39.667243a206.705116 206.705116 0 0 0 0 34.019933c0 1.020598 0.408239 1.088638 1.769037 1.973156a14.696611 14.696611 0 0 1 6.803986 9.185382 264.675083 264.675083 0 0 1 2.857675 36.945648 3.333953 3.333953 0 0 0 0.816478 2.177276c6.123588 6.055548 13.607973 20.41196 13.607974 54.431894v170.439867c0.408239 4.830831 2.245316 34.019934-16.737808 39.735282-14.900731 4.89887-134.991096 23.337674-387.623123 23.337674zM105.189635 649.780731c-1.020598 0.476279-5.03495 6.191628-5.851429 25.71907a13.607973 13.607973 0 0 0 3.742193 9.86578c45.518671 49.737143 152.545382 57.357608 153.63402 57.425648 387.827243 13.131694 571.534884-13.607973 589.497408-18.983123 6.803987-2.177276 7.824585-18.574884 6.803987-25.719069v-50.009303-121.247043c-0.408239-33.339535-7.620465-43.069236-9.797741-45.246512a16.261528 16.261528 0 0 1-4.83083-11.294618 293.592027 293.592027 0 0 0-2.449436-34.019933c0-0.612359 0-0.612359-1.360797-1.360797a15.921329 15.921329 0 0 1-7.416346-9.593622 199.969169 199.969169 0 0 1-0.816478-38.782724c2.041196-20.41196-2.313355-26.467508-4.286512-28.236545a6.191628 6.191628 0 0 0-5.171029-1.428837h-2.585515c-95.255814-13.607973-143.36-32.863256-178.604652-46.879468-11.090498-4.422591-20.41196-8.232824-30.005581-11.226579-24.902591-7.892625-31.978738 6.055548-38.102326 23.813954A52.798937 52.798937 0 0 1 564.730897 330.673754c-5.10299 9.457542-35.448771 58.650365-36.741528 60.691562-18.166645 37.285847-133.01794 142.203322-152.545382 147.578471l-9.865781 2.653555-10.27402 2.721595c-2.585515 0.816478-5.17103 1.837076-7.620465 2.789634s-4.626711 1.837076-6.803987 2.449436a637.669635 637.669635 0 0 0-65.658472 25.65103 173.229502 173.229502 0 0 1-33.407574 12.655415 55.180332 55.180332 0 0 1-8.232824 0.476279h-63.957475a57.901927 57.901927 0 0 0-56.949369 48.240266 45.382591 45.382591 0 0 0-0.612359 6.395747v6.803987z" p-id="11376"></path><path d="M268.825515 696.52412h-21.704718a265.355482 265.355482 0 0 1-145.809435-50.417542l4.286512-5.30711a257.530897 257.530897 0 0 0 141.727043 48.920665c97.637209 2.653555 568.47309-13.607973 610.929967-44.089834l3.946312 5.511229c-43.137276 30.8901-469.407043 45.382591-593.375681 45.382592zM833.420332 380.410897c-207.861794-37.149767-257.326777-80.627243-259.299933-82.464319l4.558671-5.03495c0.476279 0.476279 50.825781 44.157874 255.96598 80.831362z" p-id="11377"></path><path d="M700.062193 519.960664a169.14711 169.14711 0 0 1-98.589768-30.48186 50.009302 50.009302 0 0 1-20.41196-34.019934 1071.151628 1071.151628 0 0 1-4.694751-108.863787c0-1.700997-1.769037-19.867641 9.117342-25.58299 8.641063-4.558671 21.432558 0.544319 39.054884 15.649169a1004.540598 1004.540598 0 0 0 211.331827 85.934353l-1.700996 6.803986a1004.880797 1004.880797 0 0 1-213.304984-86.81887c-20.41196-17.282126-28.644784-16.873887-31.910697-15.17289-5.851429 3.061794-5.987508 15.24093-5.51123 19.255282a1067.817674 1067.817674 0 0 0 4.626711 108.183389A42.524917 42.524917 0 0 0 605.554817 483.899535a164.248239 164.248239 0 0 0 109.272027 28.644784c1.292757 0 88.043588 4.89887 131.180864-38.170366l4.76279 4.830831c-45.246512 45.246512-132.269502 40.415681-136.079734 40.143522q-7.484385 0.612359-14.628571 0.612358zM324.482126 657.060997c-9.253422 0-19.867641-12.587375-22.112957-15.37701-8.573023-13.607973-27.215947-11.226578-27.215946-11.226578-121.791362-3.333953-150.095947-28.100465-151.252625-29.189103l4.558671-5.034951s28.576744 24.154153 146.353754 27.215947c0 0 22.725316-2.925714 33.407575 14.016213 4.694751 5.851429 13.607973 13.607973 17.282126 12.451296 1.905116-0.612359 3.197874-4.422591 3.606113-10.27402a246.576478 246.576478 0 0 1-6.259668-32.182857c-2.585515-21.772757 0.544319-36.265249 10.4101-48.512426a57.017409 57.017409 0 0 1 38.034286-18.302724 6.327708 6.327708 0 0 0 4.694751-2.517475 9.049302 9.049302 0 0 0 1.837076-7.212226l6.803987-1.428837a15.649169 15.649169 0 0 1-3.606113 13.131694 13.063654 13.063654 0 0 1-9.933821 5.10299 50.893821 50.893821 0 0 0-32.931295 15.853289c-8.709103 10.750299-11.294618 23.337674-8.913223 43.341396a260.320532 260.320532 0 0 0 6.191628 31.774618V639.574751c0 3.538073-0.748439 14.424452-8.300864 16.873887a10.00186 10.00186 0 0 1-2.653555 0.612359z" p-id="11378"></path><path d="M381.023256 693.122126c-2.313355-2.993754-56.745249-73.891296-59.670964-100.699003l6.803987-0.748439c2.653555 24.902591 57.697807 96.616611 58.242126 97.29701zM469.066844 690.128372c-10.4101-12.995615-35.65289-72.190299-36.741528-74.843854-10.34206-15.44505-1.292757-72.598538 0-79.062325l6.803986 1.156677c-2.721595 16.805847-8.232824 63.004917-0.476279 74.843854 0.544319 1.156678 26.195349 61.23588 36.06113 73.755216z" p-id="11379"></path><path d="M441.510698 578.33887a83.961196 83.961196 0 0 1-10.61422-0.680398l0.884519-6.803987a56.813289 56.813289 0 0 0 43.817674-10.20598 40.347641 40.347641 0 0 0 13.063655-20.820199c13.607973-45.110432 105.529834-59.602924 109.408106-60.215283l1.020598 6.803987c-0.884518 0-91.445581 14.424452-103.896877 55.520532a47.083588 47.083588 0 0 1-15.44505 24.154152 61.23588 61.23588 0 0 1-38.238405 12.247176z" p-id="11380"></path><path d="M585.551096 344.485847m12.655416 0l0 0q12.655415 0 12.655415 12.655415l0 0q0 12.655415-12.655415 12.655416l0 0q-12.655415 0-12.655416-12.655416l0 0q0-12.655415 12.655416-12.655415Z" p-id="11381"></path><path d="M598.206512 373.130631a16.057409 16.057409 0 1 1 16.057408-16.057408 16.057409 16.057409 0 0 1-16.057408 16.057408z m0-25.24279a9.253422 9.253422 0 1 0 9.253422 9.185382 9.185382 9.185382 0 0 0-9.253422-9.185382z" p-id="11382"></path><path d="M598.206512 426.269767m12.655415 0l0 0q12.655415 0 12.655415 12.655416l0 0q0 12.655415-12.655415 12.655415l0 0q-12.655415 0-12.655415-12.655415l0 0q0-12.655415 12.655415-12.655416Z" p-id="11383"></path><path d="M610.861927 454.982591a16.057409 16.057409 0 1 1 16.057409-16.057408 16.057409 16.057409 0 0 1-16.057409 16.057408z m0-25.31083a9.253422 9.253422 0 1 0 9.253422 9.253422 9.253422 9.253422 0 0 0-9.253422-9.253422z" p-id="11384"></path><path d="M402.047575 489.138605m10.614219 0l0.06804 0q10.614219 0 10.614219 10.614219l0 43.681595q0 10.614219-10.614219 10.614219l-0.06804 0q-10.614219 0-10.614219-10.614219l0-43.681595q0-10.614219 10.614219-10.614219Z" fill="#FFFFFF" p-id="11385"></path><path d="M412.661794 557.450631a14.016213 14.016213 0 0 1-14.016213-14.016212v-43.613555a14.084252 14.084252 0 1 1 28.100466 0v43.613555a14.084252 14.084252 0 0 1-14.084253 14.016212z m0-64.910033a7.280266 7.280266 0 0 0-7.212226 7.280266v43.613555a7.280266 7.280266 0 0 0 14.492492 0v-43.613555a7.280266 7.280266 0 0 0-7.280266-7.280266z" p-id="11386"></path><path d="M530.946531 392.183987m-3.541353-10.006022l0 0q-3.541353-10.006022 6.464669-13.547375l55.738672-19.727151q10.006022-3.541353 13.547375 6.464669l0 0q3.541353 10.006022-6.464669 13.547374l-55.738672 19.727152q-10.006022 3.541353-13.547375-6.464669Z" fill="#FFFFFF" p-id="11387"></path><path d="M537.51495 392.658073a13.607973 13.607973 0 0 1-6.055548-1.428837A13.607973 13.607973 0 0 1 523.906977 383.268571a14.084252 14.084252 0 0 1 8.845182-17.894485l55.724652-19.731561a14.152292 14.152292 0 0 1 17.894485 8.573023 14.016213 14.016213 0 0 1-8.504984 17.894485l-55.724651 19.731562a14.220332 14.220332 0 0 1-4.626711 0.816478z m55.656611-40.82392a6.191628 6.191628 0 0 0-2.381395 0.476279l-55.724651 19.663521A7.280266 7.280266 0 0 0 530.710963 381.023256a6.803987 6.803987 0 0 0 3.674153 4.082392 6.803987 6.803987 0 0 0 5.51123 0l55.724651-19.731562a6.803987 6.803987 0 0 0 4.082392-3.742192 6.803987 6.803987 0 0 0 0.340199-5.51123 7.348306 7.348306 0 0 0-3.742193-4.082392 6.803987 6.803987 0 0 0-3.197873-0.408239z" p-id="11388"></path><path d="M431.304718 463.963854m10.614219 0l0.06804 0q10.614219 0 10.614219 10.614219l0 59.126645q0 10.614219-10.614219 10.614219l-0.06804 0q-10.614219 0-10.614219-10.614219l0-59.126645q0-10.614219 10.614219-10.614219Z" fill="#FFFFFF" p-id="11389"></path><path d="M442.259136 547.72093a14.084252 14.084252 0 0 1-14.084252-14.016212v-59.126645a14.084252 14.084252 0 0 1 28.100465 0v59.126645A14.084252 14.084252 0 0 1 442.259136 547.72093z m0-80.355083a7.280266 7.280266 0 0 0-7.280266 7.212226v59.126645a7.280266 7.280266 0 0 0 14.492492 0v-59.126645A7.280266 7.280266 0 0 0 442.259136 467.365847z" p-id="11390"></path><path d="M511.693921 396.786111m5.005959-9.359595l0 0q5.005959-9.359595 14.365555-4.353637l84.056366 44.957361q9.359595 5.005959 4.353637 14.365554l0 0q-5.005959 9.359595-14.365554 4.353637l-84.056367-44.957361q-9.359595-5.005959-4.353637-14.365554Z" fill="#FFFFFF" p-id="11391"></path><path d="M610.045449 451.444518a13.607973 13.607973 0 0 1-6.803987-1.700996l-83.825116-44.906313a14.016213 14.016213 0 1 1 13.607973-24.766511l84.029236 44.906312a14.084252 14.084252 0 0 1-6.803987 26.467508z m-84.029236-66.20279a7.212226 7.212226 0 0 0-3.401994 13.607973l84.029236 44.974352a7.212226 7.212226 0 0 0 9.797741-2.993754 6.803987 6.803987 0 0 0-2.993754-9.729701l-84.029236-45.042392a7.552425 7.552425 0 0 0-3.401993-0.816478z" p-id="11392"></path><path d="M458.384585 438.925183m10.614219 0l0 0q10.614219 0 10.614219 10.614219l0 59.126645q0 10.614219-10.614219 10.614219l0 0q-10.614219 0-10.614219-10.614219l0-59.126645q0-10.614219 10.614219-10.614219Z" fill="#FFFFFF" p-id="11393"></path><path d="M469.066844 522.682259a14.016213 14.016213 0 0 1-14.016213-14.016212v-59.126645a14.016213 14.016213 0 0 1 28.032425 0v59.126645a14.016213 14.016213 0 0 1-14.016212 14.016212z m0-80.355083a7.212226 7.212226 0 0 0-7.212226 7.212226v59.126645a7.212226 7.212226 0 1 0 14.424452 0v-59.126645A7.280266 7.280266 0 0 0 469.066844 442.259136z" p-id="11394"></path><path d="M486.48505 411.913355m10.614219 0l0 0q10.614219 0 10.614219 10.61422l0 59.126644q0 10.614219-10.614219 10.61422l0 0q-10.614219 0-10.614219-10.61422l0-59.126644q0-10.614219 10.614219-10.61422Z" fill="#FFFFFF" p-id="11395"></path><path d="M497.099269 495.670432A14.016213 14.016213 0 0 1 483.083056 481.654219V422.527575a14.084252 14.084252 0 0 1 28.100466 0v59.126644a14.084252 14.084252 0 0 1-14.084253 14.016213z m0-80.355083A7.280266 7.280266 0 0 0 489.887043 422.527575v59.126644a7.280266 7.280266 0 0 0 14.492492 0V422.527575a7.280266 7.280266 0 0 0-7.280266-7.484386z" p-id="11396"></path><path d="M501.058552 399.535691m9.81404-4.043052l0 0q9.81404-4.043052 13.857092 5.770989l12.725246 30.889062q4.043052 9.81404-5.770989 13.857092l0 0q-9.81404 4.043052-13.857091-5.770989l-12.725247-30.889062q-4.043052-9.81404 5.770989-13.857092Z" fill="#FFFFFF" p-id="11397"></path><path d="M527.717209 450.151761a14.084252 14.084252 0 0 1-12.995614-8.709103l-12.655416-30.82206a14.016213 14.016213 0 1 1 25.92319-10.750299l12.723455 30.8901A14.016213 14.016213 0 0 1 533.092359 449.063123a13.607973 13.607973 0 0 1-5.37515 1.088638z m-12.723455-52.118538a7.484385 7.484385 0 0 0-2.721595 0.544319 7.280266 7.280266 0 0 0-3.946312 9.661661l12.723455 30.822059a7.280266 7.280266 0 0 0 9.457542 3.946313 6.803987 6.803987 0 0 0 3.878272-3.946313 6.803987 6.803987 0 0 0 0-5.511229l-12.655415-30.82206a7.484385 7.484385 0 0 0-3.946312-3.946312 7.824585 7.824585 0 0 0-2.789635-0.748438zM569.017409 552.279601s-86.750831 49.873223-47.627907 83.893156 183.707641-16.125449 183.707641-16.125448l154.994817-68.448106v-21.228439s-355.168106 156.219535-291.074551 21.908837z" p-id="11398"></path><path d="M567.656611 651.345648c-20.41196 0-37.966246-3.401993-48.512425-12.587376a28.780864 28.780864 0 0 1-11.158538-25.37887c3.061794-31.366379 57.017409-62.732757 59.330764-64.093555l9.457541-5.443189-4.69475 9.865781c-9.049302 18.983123-9.797741 32.523056-2.245316 40.347641 34.019934 34.700332 220.10897-36.469369 289.169435-66.81515l4.762791-2.109236v28.712824l-157.172093 69.264585c-4.626711 1.632957-82.328239 28.236545-138.937409 28.236545z m-5.987508-90.424984c-15.30897 10.13794-44.906312 32.386977-46.947508 53.139137A22.112957 22.112957 0 0 0 523.906977 633.587243c37.149767 32.386977 179.01289-16.261528 180.441727-16.805848l152.817542-67.427508v-13.607973C820.900997 551.122924 605.963056 641.003588 564.730897 598.750831c-7.960664-8.436944-9.049302-21.160399-3.061794-37.830167zM746.737542 597.594153s-31.910698 75.728372-41.504319 76.54485" p-id="11399"></path><path d="M705.505382 677.540997l-0.544319-6.803987c5.30711-2.245316 24.290233-40.415681 38.646645-74.435615l6.259667 2.653555c-12.247176 28.984983-34.224053 77.701528-44.361993 78.586047z" p-id="11400"></path></svg>